<svg xmlns="http://www.w3.org/2000/svg" viewBox="0 0 320 200" fill="none">
  <rect width="320" height="200" fill="#fdeee8"/>
  <ellipse cx="160" cy="168" rx="118" ry="17" fill="#1c1914" opacity=".06"/>
  <path d="M48 72c0-5 5-9 12-9h200c7 0 12 4 12 9v68c0 26-36 46-112 46S48 166 48 140V72z" fill="#fff5f0" stroke="#e8c4b8"/>
  <ellipse cx="160" cy="78" rx="100" ry="28" fill="#e85d3a" opacity=".85"/>
  <ellipse cx="130" cy="76" rx="22" ry="10" fill="#f4a688" opacity=".9"/>
  <ellipse cx="185" cy="80" rx="18" ry="8" fill="#c94a2d" opacity=".5"/>
  <rect x="135" y="88" width="50" height="14" rx="4" fill="#f5e6c8" opacity=".95"/>
  <path d="M100 70l6-12 6 12M210 68l5-10 5 10" stroke="#2d5a3d" stroke-width="2.5" stroke-linecap="round"/>
</svg>
