<svg xmlns="http://www.w3.org/2000/svg" viewBox="0 0 320 200" fill="none">
  <rect width="320" height="200" fill="#e8f0ea"/>
  <ellipse cx="160" cy="168" rx="120" ry="18" fill="#1c1914" opacity=".06"/>
  <path d="M50 78c0-6 6-11 14-11h192c8 0 14 5 14 11v62c0 28-38 50-110 50S50 168 50 140V78z" fill="#f0e6d8" stroke="#c4b5a0"/>
  <ellipse cx="160" cy="82" rx="98" ry="30" fill="#b8895a"/>
  <path d="M90 78h140" stroke="#6b5344" stroke-width="2" opacity=".35"/>
  <ellipse cx="125" cy="80" rx="10" ry="4" fill="#4a3728" opacity=".4"/>
  <ellipse cx="195" cy="78" rx="12" ry="5" fill="#4a3728" opacity=".35"/>
  <path d="M130 68l8-18 7 18M175 66l6-14 6 14" stroke="#2d5a3d" stroke-width="3" stroke-linecap="round"/>
  <circle cx="210" cy="74" r="5" fill="#c4a35a"/>
</svg>
