<svg xmlns="http://www.w3.org/2000/svg" viewBox="0 0 320 200" fill="none">
  <rect width="320" height="200" fill="#faf3e8"/>
  <ellipse cx="160" cy="168" rx="105" ry="14" fill="#1c1914" opacity=".06"/>
  <path d="M48 108c0-12 10-22 24-22h176c14 0 24 10 24 22v8c0 8-6 14-14 14H62c-8 0-14-6-14-14v-8z" fill="#d4a574"/>
  <path d="M56 100c12-18 28-28 48-32 40-8 80-8 120 0 20 4 36 14 48 32" stroke="#b8895a" stroke-width="3" fill="none"/>
  <rect x="70" y="88" width="180" height="36" rx="6" fill="#e8c9a0"/>
  <rect x="78" y="96" width="164" height="8" rx="2" fill="#6b5344" opacity=".35"/>
  <rect x="78" y="108" width="120" height="6" rx="2" fill="#2d5a3d" opacity=".45"/>
  <ellipse cx="160" cy="118" rx="8" ry="4" fill="#c94a2d" opacity=".5"/>
</svg>
