<svg xmlns="http://www.w3.org/2000/svg" viewBox="0 0 400 320" fill="none">
  <defs>
    <linearGradient id="bowl" x1="0" y1="0" x2="0" y2="1">
      <stop offset="0%" stop-color="#f5ebe0"/>
      <stop offset="100%" stop-color="#d4c4b0"/>
    </linearGradient>
    <linearGradient id="broth" x1="0.5" y1="0" x2="0.5" y2="1">
      <stop offset="0%" stop-color="#c49a6c"/>
      <stop offset="100%" stop-color="#8b6914"/>
    </linearGradient>
  </defs>
  <ellipse cx="200" cy="248" rx="140" ry="28" fill="#1c1914" opacity=".08"/>
  <path d="M80 120c0-8 8-14 18-14h204c10 0 18 6 18 14v100c0 40-50 72-120 72s-120-32-120-72V120z" fill="url(#bowl)" stroke="#c4b5a0" stroke-width="2"/>
  <ellipse cx="200" cy="128" rx="118" ry="36" fill="url(#broth)" opacity=".95"/>
  <path d="M120 118c20-8 40-12 80-12s60 4 80 12" stroke="#6b5344" stroke-width="3" stroke-linecap="round" opacity=".4"/>
  <ellipse cx="155" cy="125" rx="14" ry="6" fill="#5c4033" opacity=".35"/>
  <ellipse cx="230" cy="122" rx="18" ry="7" fill="#5c4033" opacity=".3"/>
  <ellipse cx="195" cy="132" rx="10" ry="5" fill="#e8dcc8" opacity=".9"/>
  <path d="M165 108l12-28 10 28M210 106l8-22 8 22" stroke="#2d5a3d" stroke-width="4" stroke-linecap="round"/>
  <circle cx="248" cy="118" r="6" fill="#c4a35a"/>
  <circle cx="138" cy="130" r="5" fill="#8b7355"/>
</svg>
